<?xml version="1.0" encoding="UTF-8" standalone="no"?>
<svg
   xmlns:dc="http://purl.org/dc/elements/1.1/"
   xmlns:cc="http://creativecommons.org/ns#"
   xmlns:rdf="http://www.w3.org/1999/02/22-rdf-syntax-ns#"
   xmlns:svg="http://www.w3.org/2000/svg"
   xmlns="http://www.w3.org/2000/svg"
   id="svg2"
   xml:space="preserve"
   viewBox="0 0 499.996 500.004"
   version="1.1"
   style="enable-background:new 0 0 499.996 500.004;"><metadata
     id="metadata37"><rdf:RDF><cc:Work
         rdf:about=""><dc:format>image/svg+xml</dc:format><dc:type
           rdf:resource="http://purl.org/dc/dcmitype/StillImage" /><dc:title></dc:title></cc:Work></rdf:RDF></metadata><defs
     id="defs35" /><g
     id="security-safety-shield"><g
       id="g5"><g
         id="g9"><linearGradient
           gradientTransform="matrix(1.8730101,0,0,1.8730101,-226.27299,-216.34016)"
           y2="250.0065"
           y1="250.0065"
           x2="364.5823"
           x1="135.418"
           id="SVGID_1_"
           gradientUnits="userSpaceOnUse"><stop
             id="stop12"
             style="stop-color:#FFFFFF"
             offset="0.5" /><stop
             id="stop14"
             style="stop-color:#EBEBEB"
             offset="0.5" /></linearGradient><path
           id="path16"
           style="fill:url(#SVGID_1_)"
           d="m 456.59278,105.78198 0,21.21184 c 0,6.4188 -0.32778,62.84886 -1.01706,72.99869 -1.24742,19.29014 -3.90709,38.42106 -7.90785,56.81403 C 409.29553,433.76478 260.89693,491.2512 254.6055,493.60371 l -9.8689,3.69732 c -0.89717,0.33527 -1.82618,0.51133 -2.77767,0.51133 -0.92901,0 -1.86552,-0.17606 -2.75332,-0.51133 l -9.8689,-3.69732 C 223.02842,491.2512 74.63732,433.71609 36.257469,256.80654 32.271701,238.41357 29.606413,219.31448 28.342126,199.99251 27.684703,189.81083 27.366289,133.41262 27.366289,126.99382 l 0,-21.21184 c 0,-3.50627 2.313165,-6.611726 5.690206,-7.572579 l 20.395207,-5.843792 c 40.9646,-11.717552 72.037838,-31.72879 99.436228,-49.402517 30.76045,-19.818316 57.31787,-36.9320094 89.071,-36.9320094 31.76063,0 58.31804,17.1136934 89.071,36.9001734 27.43022,17.705563 58.4941,37.714929 99.46806,49.434353 l 20.38585,5.843792 c 3.38079,0.962727 5.70894,4.068179 5.70894,7.572579 z" /><linearGradient
           gradientTransform="matrix(1.8730101,0,0,1.8730101,-226.27299,-216.34016)"
           y2="249.8698"
           y1="249.8698"
           x2="356.1764"
           x1="143.8068"
           id="SVGID_2_"
           gradientUnits="userSpaceOnUse"><stop
             id="stop19"
             style="stop-color:#586373"
             offset="0.5" /><stop
             id="stop21"
             style="stop-color:#474F59"
             offset="0.5" /></linearGradient><path
           id="path23"
           style="fill:url(#SVGID_2_)"
           d="M 440.84825,111.70631 426.15262,107.4808 C 382.961,95.137664 350.84825,74.43903 322.51335,56.188419 293.85817,37.731778 269.10071,21.786844 241.95893,21.786844 c -27.12681,0 -51.87488,15.944934 -80.54693,34.386591 C 133.0921,74.43903 100.98683,95.137664 57.780231,107.4808 l -14.703129,4.22551 0,15.28751 c 0,7.6681 0.367108,62.80203 0.958977,71.99102 1.208094,18.5222 3.770368,36.85146 7.596928,54.49335 36.587376,168.61774 177.254183,223.17477 183.217843,225.38305 l 7.10808,2.68965 7.12306,-2.68965 c 5.97115,-2.20828 146.6211,-56.73347 183.21784,-225.38305 3.8172,-17.64189 6.37199,-35.97115 7.58008,-54.49335 0.60873,-9.17213 0.96834,-64.30606 0.96834,-71.99102 l 0,-15.28751 z" /><linearGradient
           gradientTransform="matrix(1.8730101,0,0,1.8730101,-226.27299,-216.34016)"
           y2="249.5022"
           y1="249.5022"
           x2="341.0314"
           x1="154.6358"
           id="SVGID_3_"
           gradientUnits="userSpaceOnUse"><stop
             id="stop26"
             style="stop-color:#FFFFFF"
             offset="0.5" /><stop
             id="stop28"
             style="stop-color:#EBEBEB"
             offset="0.5" /></linearGradient><path
           id="path30"
           style="fill:url(#SVGID_3_)"
           d="m 241.95893,197.67186 0,51.49842 -170.498237,0 C 67.971278,233.11295 65.482046,215.9693 64.296426,197.67186 63.743891,189.31448 63.359924,135.8157 63.359924,126.99382 152.66317,101.4291 198.24662,42.069668 241.95893,42.069668 l 0,155.602192 z m 0,51.50029 0,210.71925 c 0,0 135.84754,-50.87471 170.52258,-210.71925 l -170.52258,0 z" /><g
           transform="matrix(12.017038,0,0,12.017038,78.254959,93.08559)"
           id="g3417"><path
             d="M 9,2 C 5.1,2 2,5.1 2,9 c 0,3.9 3.1,7 7,7 3.9,0 7,-3.1 7,-7 C 16,5.1 12.9,2 9,2 Z M 7.5,10 C 6.1,10 5,8.9 5,7.5 5,6.1 6.1,5 7.5,5 8.9,5 10,6.1 10,7.5 10,8.9 8.9,10 7.5,10 Z"
             id="path3407" /><path
             d="m 15,11 -4,4 2,2 0,0 2,0 0,2 0,0 2,0 0,2 0.7,0.7 c 0.2,0.2 0.4,0.3 0.7,0.3 l 2.6,0 c 0.6,0 1,-0.4 1,-1 l 0,-2.6 c 0,-0.3 -0.1,-0.5 -0.3,-0.7 L 15,11 Z"
             id="path3409" /></g><path
           id="path3421"
           d="m 282.93281,356.04098 c -4.37515,-4.57637 -5.71013,-8.32621 -6.2227,-17.47896 l -0.65258,-11.65263 -11.12297,-0.64039 -11.12297,-0.64038 0,-11.54192 0,-11.54191 -11.88827,0 c -10.75612,0 -12.84542,-0.80137 -21.93885,-8.41482 -9.27239,-7.76329 -10.60641,-8.25542 -17.22933,-6.35599 -12.78956,3.668 -38.74918,2.48456 -51.68759,-2.35632 -68.554101,-25.64938 -72.150241,-121.64818 -5.73291,-153.04006 12.87692,-6.08623 16.06743,-6.70513 34.32382,-6.65815 15.92962,0.041 22.66649,1.06312 32.3025,4.90103 16.96433,6.75668 33.69789,22.6286 42.32921,40.14961 6.43891,13.07056 6.93674,15.60548 6.93674,35.32167 0,11.68231 -0.4767,23.74472 -1.05933,26.80535 -0.92712,4.87024 3.63432,10.46448 36.5469,44.82186 l 37.60623,39.25707 0,19.90324 c 0,12.65542 -0.92581,20.82904 -2.54239,22.44562 -1.62478,1.62478 -9.89318,2.5424 -22.90889,2.5424 -19.45522,0 -20.61573,-0.26071 -25.93662,-5.82632 z M 177.40915,216.04565 c 14.4822,-7.76688 19.49375,-28.97186 10.15205,-42.95553 -9.02045,-13.50281 -25.51326,-18.05169 -39.53205,-10.90333 -9.81665,5.00563 -15.2577,13.01303 -16.38911,24.11928 -2.5049,24.58879 23.6657,41.59377 45.76911,29.73958 z"
           style="fill:#ffffff;stroke:none;stroke-width:1px;stroke-linecap:butt;stroke-linejoin:miter;stroke-opacity:1" /></g></g></g><g
     id="Layer_1" /></svg>